<svg id="Layer_1" data-name="Layer 1" xmlns="http://www.w3.org/2000/svg" viewBox="0 0 1109 322"><defs><style>.cls-1{isolation:isolate;}.cls-2{fill:#666;}</style></defs><g class="cls-1"><g class="cls-1"><path class="cls-2" d="M219.21,171.84a2,2,0,0,1,2.15,2.14v122.5a3.22,3.22,0,0,1-2.15,3c-17.19,6.88-43,14.19-79.08,14.19-70.49,0-133.24-49.43-133.24-153.44C6.89,79.43,52,5.94,146.14,5.94a191.48,191.48,0,0,1,66.19,12,3.91,3.91,0,0,1,1.72,3.44l-2.58,6.87c0,1.29-1.29,1.72-2.58,1.29-18-7.3-39.54-12-64.47-12-81.66,0-124.21,63.18-124.21,142.69,0,81.66,43.41,142.26,122.07,142.26,30.94,0,51.14-5.58,66.61-11.6V184.3H140.13a1.73,1.73,0,0,1-1.72-2.15l.43-8.17a2.73,2.73,0,0,1,2.58-2.14Z"/></g><g class="cls-1"><path class="cls-2" d="M270.35,203.64c0-68.77,37.39-111.75,94.12-111.75,56.31,0,93.27,42.55,93.27,111.75s-37,110.89-93.27,110.89C307.74,314.53,270.35,272.41,270.35,203.64Zm12.89,0c0,47.28,21.49,98.85,81.23,98.85,58.89,0,80.38-51.57,80.38-98.85s-21.49-99.71-80.38-99.71C304.73,103.93,283.24,156.36,283.24,203.64Z"/></g><g class="cls-1"><path class="cls-2" d="M571.64,310.23a3.23,3.23,0,0,1-3-2.15L471.5,11.52a1.5,1.5,0,0,1,1.29-2.15h9a3.23,3.23,0,0,1,3,2.15l55,166.76,35.68,113.47,35.67-113.47,55-166.76a3.4,3.4,0,0,1,3.44-2.15h8.6c1.29,0,1.72.86,1.29,2.15L582.81,308.08a3.4,3.4,0,0,1-3.43,2.15Z"/></g><g class="cls-1"><path class="cls-2" d="M715.19,98.34a2,2,0,0,1,2.15-2.15h8.17a2,2,0,0,1,2.15,2.15V226.42c0,43.84,14.18,76.5,55.87,76.5,40.83,0,75.64-31.37,75.64-64.89V98.34a2,2,0,0,1,2.15-2.15h8.17a2,2,0,0,1,2.15,2.15v165.9c0,14.62.43,29.23.86,43.84a2,2,0,0,1-2.15,2.15h-8.17a2,2,0,0,1-2.15-2.15l-1.29-34.81c-16.76,25.35-41.26,41.26-75.21,41.26s-68.34-15-68.34-87.25Z"/><path class="cls-2" d="M1024.64,91.89c60.17,0,82.52,51.58,75.65,104.44a2.73,2.73,0,0,1-2.58,2.15H946c0,66.19,25.79,104,86,104a140.27,140.27,0,0,0,55.87-12c1.29-.43,2.58,0,2.58,1.29l1.72,7.3a3.25,3.25,0,0,1-1.29,3.44c-10.74,5.16-34.38,12-60.6,12-67.05,0-97.13-45.13-97.13-109.17C933.1,132.73,971.35,91.89,1024.64,91.89Zm-77.79,94.56h141c4.73-41.69-16.33-82.52-63.18-82.52C973.93,103.93,951.15,145.19,946.85,186.45Z"/></g></g></svg>